<svg xmlns="http://www.w3.org/2000/svg" xmlns:xlink="http://www.w3.org/1999/xlink" width="331.125" height="331.125" viewBox="0 0 331.125 331.125"><defs><clipPath id="a"><path d="M0,0H331.125V331.125H0Z"/></clipPath></defs><g transform="translate(-21.938 -351)"><g transform="translate(-49.875 -78.375)"><circle cx="96" cy="96" r="96" transform="translate(141.375 513.375)" fill="#c5dcef"/></g><g transform="translate(21.938 351)" clip-path="url(#a)"><g transform="translate(42.921 75.651)"><path d="M371.594,416.31l-52.888,33.352a21.878,21.878,0,0,1-18.364,2.323L242.368,433.35a21.877,21.877,0,0,0-18.464,2.387l-42.444,27.094a9.913,9.913,0,0,1-14.827-5.66L130,328.75a9.913,9.913,0,0,1,4.237-11.1l53.452-33.782a23.955,23.955,0,0,1,20.127-2.556l56.123,18.041a23.955,23.955,0,0,0,20.191-2.6l40.192-25.577a9.913,9.913,0,0,1,14.853,5.644l36.626,128.4a9.912,9.912,0,0,1-4.21,11.081Z" transform="translate(-129.621 -256)" fill="#cccdcf"/><path d="M377.827,375.147l-45.162,28.739a23.956,23.956,0,0,1-20.191,2.6l-56.127-18.041A23.955,23.955,0,0,0,236.22,391l-48.528,30.67a9.911,9.911,0,0,1-14.826-5.66L136.234,287.586a9.912,9.912,0,0,1,4.236-11.1l53.45-33.784a23.954,23.954,0,0,1,20.127-2.555l56.127,18.041a23.953,23.953,0,0,0,20.191-2.6l40.192-25.576a9.911,9.911,0,0,1,14.853,5.644l36.626,128.4a9.913,9.913,0,0,1-4.209,11.083Z" transform="translate(-133.79 -228.466)" fill="#fff"/><path d="M295.989,574.707l-8.4-23.694L247.906,564.6,235.5,528.645l-32.323,6.433,22.662,79.446a1.664,1.664,0,0,0,1.607,1.2,1.58,1.58,0,0,0,.865-.262l46.136-29.159c-.2-.235,21.545-11.6,21.545-11.6Z" transform="translate(-178.818 -429.248)" fill="#eaf4f7"/><path d="M377.827,375.147l-45.162,28.739a23.956,23.956,0,0,1-20.191,2.6l-56.127-18.041A23.955,23.955,0,0,0,236.22,391l-48.528,30.67a9.911,9.911,0,0,1-14.826-5.66L136.234,287.586a9.912,9.912,0,0,1,4.236-11.1l53.45-33.784a23.954,23.954,0,0,1,20.127-2.555l56.127,18.041a23.953,23.953,0,0,0,20.191-2.6l40.192-25.576a9.911,9.911,0,0,1,14.853,5.644l36.626,128.4a9.913,9.913,0,0,1-4.209,11.083Z" transform="translate(-133.79 -228.466)" fill="none" stroke="#36395a" stroke-miterlimit="10" stroke-width="6.96"/><path d="M228.4,304.442l30.787,5.836-7.07-12.427-25.481-8.89a11.884,11.884,0,0,0-9.082.519l-55.99,34.01a1.662,1.662,0,0,0-.706,1.85l9.03,31.655,24.617-6.087-4.521-18.134L228.4,304.442Z" transform="translate(-150.474 -268.486)" fill="#86d4f7"/><path d="M228.4,304.442l30.787,5.836-7.07-12.427-25.481-8.89a11.884,11.884,0,0,0-9.082.519l-55.99,34.01a1.662,1.662,0,0,0-.706,1.85l9.03,31.655,24.617-6.087-4.521-18.134L228.4,304.442Z" transform="translate(-150.474 -268.486)" fill="none" stroke="#249ad5" stroke-linecap="round" stroke-linejoin="round" stroke-width="4.64"/><path d="M512.309,573.8l17.569,4.424,8.494,19.466-18.926-3.1Z" transform="translate(-385.591 -459.449)" fill="#fcdcbe"/><path d="M512.309,573.8l17.569,4.424,8.494,19.466-18.926-3.1Z" transform="translate(-385.591 -459.449)" fill="none" stroke="#ebaf71" stroke-linecap="round" stroke-linejoin="round" stroke-width="4.64"/><path d="M676.934,527.536,709.171,513.5l12.735,38.8-52.2,29.665-9.568-27,20.411-11.481-3.614-15.947Z" transform="translate(-484.47 -419.121)" fill="#fcdcbe"/><path d="M676.934,527.536,709.171,513.5l12.735,38.8-52.2,29.665-9.568-27,20.411-11.481-3.614-15.947Z" transform="translate(-484.47 -419.121)" fill="none" stroke="#ebaf71" stroke-linecap="round" stroke-linejoin="round" stroke-width="4.64"/></g><path d="M357,484.444s17.881-5.3,22.848-10.6,7.947-5.629-6.954-26.821-12.252-26.49-11.258-28.146,6.954-5.629,27.152-3.311,25.828,15.563,31.457,32.45,16.076,20.167,19.867,16.556c6.633-6.318-.026-15.1,7.429-21.881" transform="translate(-238.788 -277.49)" fill="none" stroke="#363a5a" stroke-linecap="round" stroke-linejoin="round" stroke-dashoffset="113" stroke-width="4" stroke-dasharray="10"/><g transform="translate(97.446 188.868)"><path d="M312.8,570.383a18.511,18.511,0,1,1-18.511,18.51A18.511,18.511,0,0,1,312.8,570.383Z" transform="translate(-294.287 -570.383)" fill="#3cc0ca"/><path d="M328.507,593.869A10.734,10.734,0,1,1,317.773,604.6,10.734,10.734,0,0,1,328.507,593.869Z" transform="translate(-309.996 -586.092)" fill="#3cc0ca"/><path d="M333,593.869a10.715,10.715,0,0,0-8.511,4.2,10.733,10.733,0,0,1,14.542,15.418A10.734,10.734,0,0,0,333,593.869h0Z" transform="translate(-314.487 -586.092)" fill="#63c6cf"/><path d="M328.507,593.869A10.734,10.734,0,1,1,317.773,604.6,10.734,10.734,0,0,1,328.507,593.869Z" transform="translate(-309.996 -586.092)" fill="none" stroke="#36395a" stroke-miterlimit="10" stroke-width="6.96"/></g><g transform="translate(169.509 75.347)"><path d="M587.992,266.635c0-22.2-18.02-40.079-39.856-39.041-19.551.93-36.218,17.585-36.218,37.69,0,29.083,38.026,51.508,38.026,51.508S587.992,294.367,587.992,266.635Z" transform="translate(-511.918 -227.551)" fill="#ed4637"/><path d="M563.833,328.675a16.974,16.974,0,0,1-20.973-.072c-11.254-8.911-27.531-25.091-27.531-44.118a36.988,36.988,0,0,1,7.608-22.343,37.384,37.384,0,0,0-11.019,26.279c0,29.083,38.026,51.508,38.026,51.508s15.507-9.142,26.722-22.969a108.68,108.68,0,0,1-12.834,11.716Z" transform="translate(-511.918 -250.687)" fill="#cd3b27"/><path d="M582.581,227.593a37.631,37.631,0,0,0-19.167,6.423,37.158,37.158,0,0,1,14.3-3.643c21.836-1.037,39.856,16.84,39.856,39.041,0,21.744-23.39,40.225-33.491,47.192l.307.186s38.048-22.427,38.048-50.159c0-22.2-18.019-40.079-39.854-39.041Z" transform="translate(-546.362 -227.55)" fill="#ef7378"/><path d="M595.134,327.493a15.655,15.655,0,1,1,15.654-15.655h0A15.654,15.654,0,0,1,595.134,327.493Z" transform="translate(-557.108 -273.458)" fill="#fff"/><path d="M595.134,327.493a15.655,15.655,0,1,1,15.654-15.655h0A15.654,15.654,0,0,1,595.134,327.493Z" transform="translate(-557.108 -273.458)" fill="none" stroke="#36395a" stroke-miterlimit="10" stroke-width="6.96"/><path d="M587.992,266.635c0-22.2-18.02-40.079-39.856-39.041-19.551.93-36.218,17.585-36.218,37.69,0,29.083,38.026,51.508,38.026,51.508S587.992,294.367,587.992,266.635Z" transform="translate(-511.918 -227.551)" fill="none" stroke="#36395a" stroke-linecap="round" stroke-linejoin="round" stroke-width="6.96"/></g></g></g></svg>