<svg xmlns="http://www.w3.org/2000/svg" xmlns:xlink="http://www.w3.org/1999/xlink" width="736" height="414" viewBox="0 0 736 414"><defs><clipPath id="a"><path d="M0,0H736V414H0Z"/></clipPath></defs><g transform="translate(-272 -674)"><g transform="translate(403 272)"><circle cx="96" cy="96" r="96" transform="translate(141 513)" fill="#c5dcef"/></g><g transform="translate(272 674)" clip-path="url(#a)"><path d="M903.777,467.483H741.06V286.969l162.717,17.025Z" transform="translate(-456.987 -176.964)" fill="#d0524f"/><g transform="translate(295.414 122.338)"><path d="M781.7,323.106H770.645v-3.964H781.7Zm4.607,5.834h-11.06v-3.964h11.06Zm100.417,7.677H875.669v-3.964h11.059v3.964Zm5.681,5.681h-11.06v-3.964h11.06Zm7.214-5.528h-11.06v-3.964h11.06Zm-95.041,5.988h-11.06V338.8h11.06Z" transform="translate(-770.645 -319.142)" fill="none" stroke="#f4d500" stroke-miterlimit="10" stroke-width="1"/></g><path d="M708,766.246H895.411v-9.3H708Z" transform="translate(-436.6 -466.783)" fill="#2b3c4d"/><path d="M1073.082,758.929h-44.837v-4.386h44.837Zm0,7.667h-44.837v-3.664h44.837Z" transform="translate(-634.084 -465.301)" fill="#435e7c"/><path d="M721.753,274.5l-1.014,8.515,178.879,21.29,1.013-8.516Z" transform="translate(-444.456 -169.275)" fill="#2b3c4d"/><path d="M898.926,404.785h-179.9v8.61h179.9v-8.611Z" transform="translate(-443.399 -249.617)" fill="#e9b03c"/><path d="M-54.752-11.231h-179.9v8.611h179.9Z" transform="translate(510.28 164.481)" fill="none" stroke="#f4d500" stroke-miterlimit="10" stroke-width="1.001"/><path d="M865,609.8H762.92V529.812H865Z" transform="translate(-470.467 -326.717)" fill="#9ed1e2"/><path d="M865.708,680.762H765.216v-4.433H865.708Z" transform="translate(-471.883 -417.07)" fill="#eff0f0"/><path d="M-.25-2.918h-.823v-9.591H-.25Z" transform="translate(375.643 286.103)" fill="none" stroke="#eff0f0" stroke-miterlimit="10" stroke-width="0.952"/><path d="M971.888,704.037H951.281a.5.5,0,0,1-.5-.5v-4.709a.5.5,0,0,1,.5-.5h20.607a.5.5,0,0,1,.5.5v4.709A.5.5,0,0,1,971.888,704.037Z" transform="translate(-586.316 -430.637)" fill="#d0524f"/><path d="M-.264-2.906H-1.13v-9.548h.866Z" transform="translate(344.314 285.923)" fill="none" stroke="#eff0f0" stroke-miterlimit="10" stroke-width="0.975"/><path d="M890.07,704.321H869.463a.5.5,0,0,1-.5-.5v-4.709a.5.5,0,0,1,.5-.5H890.07a.5.5,0,0,1,.5.5v4.709A.5.5,0,0,1,890.07,704.321Z" transform="translate(-535.861 -430.812)" fill="#d0524f"/><path d="M-.275-2.895h-.905V-12.4h.905Z" transform="translate(312.597 285.916)" fill="none" stroke="#eff0f0" stroke-miterlimit="10" stroke-width="0.995"/><path d="M807.247,704.358H786.64a.5.5,0,0,1-.5-.5V699.15a.5.5,0,0,1,.5-.5h20.607a.5.5,0,0,1,.5.5v4.709A.5.5,0,0,1,807.247,704.358Z" transform="translate(-484.787 -430.835)" fill="#d0524f"/><path d="M905.259,468.43H762.92V439.083H905.259Z" transform="translate(-470.467 -270.768)" fill="#f7da2c"/><path d="M864.6,532.95H768.572v1.462H864.6V532.95Zm-1.587,3.1H768.572v1.438h94.445Zm.353,3.086h-94.8v1.444h94.8v-1.444Zm.537,3.084H768.572v1.452h95.334V542.22Zm.579,3.084H768.572v1.461h95.913V545.3Zm.579,3.084H768.572v1.469h96.491v-1.469Zm.533,3.085H768.572v1.478H865.6v-1.478Zm.341,3.086H768.572v1.483h97.366Z" transform="translate(-473.953 -328.653)" fill="#eff0f0"/><g transform="translate(330.458 135.089)"><path d="M935.833,458,891.6,472.761a6.471,6.471,0,0,1-8.162-4.077l-1.063-3.186a1.148,1.148,0,0,1,.723-1.448l54.3-18.123a1.148,1.148,0,0,1,1.448.723l1.063,3.186A6.471,6.471,0,0,1,935.833,458Z" transform="translate(-874.555 -410.041)" fill="#f8a21a"/><path d="M927.713,416.346l-50.748,16.938a1.5,1.5,0,0,0-.943,1.887l.418,1.251a1.5,1.5,0,0,0,1.887.943l50.748-16.939a1.5,1.5,0,0,0,.943-1.887l-.418-1.251a1.5,1.5,0,0,0-1.887-.943Z" transform="translate(-870.625 -391.788)" fill="#e62728"/><path d="M1003.22,438.234l4.958-1.654a3.492,3.492,0,0,0,2.2-4.405l-.412-1.235a3.485,3.485,0,0,0-2.473-2.273c.1,3.74-2.375,7.358-4.273,9.567Z" transform="translate(-949.11 -399.433)" fill="#8b401f"/><path d="M923.479,402.515l-50.956,17.008c-1.223-.385-2.01-.778-2.251-1.5l-1.793-5.373a1.386,1.386,0,0,1,.874-1.749l50.954-17.008a1.386,1.386,0,0,1,1.749.873l1.793,5.373a4.517,4.517,0,0,1-.371,2.375Z" transform="translate(-865.976 -377.946)" fill="#b75f28"/><path d="M862.867,385.3c-3.482-10.433,4.591-26.154,19.842-31.245s32.132,2.3,35.615,12.734L862.867,385.3Z" transform="translate(-862.064 -352.405)" fill="#f8a21a"/><path d="M932.931,435.5l-48.94,16.336a2.874,2.874,0,0,1-3.625-1.811l-.8-2.4A2.875,2.875,0,0,1,881.375,444l48.94-16.335a2.874,2.874,0,0,1,3.625,1.811l.8,2.4a2.874,2.874,0,0,1-1.811,3.625Z" transform="translate(-872.765 -398.725)" fill="#934b21"/><path d="M930.482,431.586l5.46-11.458-40.66,13.551s18.933-4.9,35.2-2.093Z" transform="translate(-882.549 -394.168)" fill="#f7da2c"/><path d="M923.516,393.639l-3.257-2.505-23.909,7.981-2.9.967-23.909,7.98-1.1,3.959c-.563,2.03,3.21,1.2,4.2.274.4-.38.647-.851,1.034-1.238a4.693,4.693,0,0,1,4.644-.946s5.328,1.963,8.2-2.442a4.747,4.747,0,0,1,4.355-2.442c1.806.1,3.432.949,5.283.853a4.642,4.642,0,0,0,3.24-1.709c.514-.626.647-1.373,1.244-1.954a5.732,5.732,0,0,1,5.807-1.4c4.939,1.8,8.021-2.972,8.021-2.972a4.694,4.694,0,0,1,4.282-2.032c.541.077,1.019.308,1.57.369,1.35.149,4.863-1.457,3.194-2.741Z" transform="translate(-865.964 -376.288)" fill="#33b49a"/></g><path d="M923.2,394.265l-3.816-3.789-25.2,8.411-3.054,1.019-25.2,8.411-.775,5.321c-.4,2.728,3.626,1.995,4.605.823.4-.479.614-1.1.994-1.59,1.232-1.591,3.206-1.561,4.959-.8,0,0,6.015,3.265,8.672-2.479.887-1.918,2.3-3.261,4.485-2.889,1.979.336,3.841,1.669,5.847,1.735a3.881,3.881,0,0,0,3.348-2c.494-.8.559-1.817,1.148-2.551a4.814,4.814,0,0,1,6.177-1.3c5.574,3,8.422-3.226,8.422-3.226.948-1.657,2.508-2.867,4.448-2.335.6.164,1.143.531,1.75.674C921.5,398.038,925.158,396.207,923.2,394.265Z" transform="translate(-533.498 -240.793)" fill="none" stroke="#33b49a" stroke-miterlimit="10" stroke-width="1.02"/><path d="M926.156,387.8l-.322-.966h0l-.487-1.459-.689-2.064a1.026,1.026,0,0,0-1.294-.647l-1.425.475-2.719.908h0l1.154-.385a3.025,3.025,0,0,0,1.906-3.815l-.845-2.53a3.023,3.023,0,0,0-3.815-1.905l-6.975,2.328,7.926-2.646a1.574,1.574,0,0,0,.992-1.985l-.439-1.317a1.57,1.57,0,0,0-1.53-1.064,4.47,4.47,0,0,0,.368-2.416l-.461-1.379c1.516-.582,2.915-1.938,1.493-3.351l-3.317-3.294.586-.2c-3.664-10.979-21.43-18.757-37.478-13.4s-24.544,21.9-20.88,32.88l.683-.229-.674,4.626c-.289,1.984,1.644,2.228,3.206,1.782l.461,1.379c.237.712.985,1.119,2.138,1.5a1.573,1.573,0,0,0-.976,1.978l.439,1.316a1.574,1.574,0,0,0,1.986.992l.951-.318a3.025,3.025,0,0,0-1.9,3.816l.844,2.53a3.025,3.025,0,0,0,3.815,1.905l-2.819.941a1.208,1.208,0,0,0-.761,1.523l1.119,3.353a6.809,6.809,0,0,0,8.59,4.29l18.575-6.2,15.583-5.2,12.385-4.134.966-.323a5.787,5.787,0,0,0,3.647-7.3Zm-10.385-2.6,1.572-.524-22.72,7.583,21.148-7.059Z" transform="translate(-528.52 -212.722)" fill="none" stroke="#f4d500" stroke-miterlimit="10" stroke-width="1.02"/><g transform="translate(342.174 139.359)"><path d="M894.241,371.882c-.334.845-.916,1.407-1.3,1.256s-.422-.959-.088-1.8.916-1.407,1.3-1.255S894.575,371.038,894.241,371.882Zm20.044-6.516c-.6.68-1.341,1.01-1.649.737s-.07-1.045.533-1.726,1.341-1.01,1.649-.737.07,1.045-.533,1.725Zm-9.867,3.123c.1.9-.147,1.672-.556,1.719s-.823-.648-.925-1.551.147-1.672.556-1.718S904.315,367.587,904.417,368.49Zm-5.7-1.609c.785.457,1.254,1.116,1.047,1.472s-1.012.273-1.8-.184-1.254-1.116-1.047-1.471,1.012-.274,1.8.183Zm9.783-3.047c.907.051,1.624.425,1.6.836s-.777.7-1.684.652-1.624-.425-1.6-.836S907.591,363.783,908.5,363.834Z" transform="translate(-892.628 -363.546)" fill="none" stroke="#eff0f0" stroke-miterlimit="10" stroke-width="1.02"/></g><path d="M1081.835,614.968h-33.6v-87.32h33.6Z" transform="translate(-646.415 -325.383)" fill="none" stroke="#f4d500" stroke-miterlimit="10" stroke-width="1"/><path d="M1084.5,708.455h-24.969V686.406H1084.5Z" transform="translate(-653.379 -423.284)" fill="#b75454"/><path d="M1084.522,579.186h-24.907V547.03h24.907Zm-.192-36.867h-24.523V537.3h24.523Z" transform="translate(-653.429 -331.337)" fill="#b8e3ee"/><path d="M1106.88,665.7v-.535a.533.533,0,0,1,.52-.543h6.426a.533.533,0,0,1,.519.543v.535a.533.533,0,0,1-.519.543H1107.4A.533.533,0,0,1,1106.88,665.7Z" transform="translate(-682.576 -409.85)" fill="#eff0f0"/></g></g></svg>