<?xml version="1.0" standalone="no"?>
<!DOCTYPE svg PUBLIC "-//W3C//DTD SVG 20010904//EN"
 "http://www.w3.org/TR/2001/REC-SVG-20010904/DTD/svg10.dtd">
<svg version="1.0" xmlns="http://www.w3.org/2000/svg"
 width="284.000000pt" height="284.000000pt" viewBox="0 0 284.000000 284.000000"
 preserveAspectRatio="xMidYMid meet">
<metadata>
Created by potrace 1.14, written by Peter Selinger 2001-2017
</metadata>
<g transform="translate(0.000000,284.000000) scale(0.100000,-0.100000)"
fill="#000000" stroke="none">
<path d="M992 1887 l-354 -152 344 -8 c309 -7 346 -6 372 9 23 14 63 17 215
19 209 3 202 -11 -11 -22 -81 -4 -125 -9 -121 -16 6 -9 81 -7 273 8 l65 5 -60
-15 c-33 -8 -108 -18 -167 -21 -61 -4 -108 -11 -108 -17 0 -12 178 -2 266 14
31 6 58 8 61 6 9 -10 -144 -39 -230 -44 -55 -4 -83 -9 -75 -14 15 -10 93 -4
222 17 48 8 90 13 92 11 6 -6 -162 -45 -242 -56 -83 -12 -130 -2 -164 34 l-23
25 -196 -6 c-108 -3 -281 -2 -384 3 l-188 8 3 -49 3 -48 102 -46 c56 -26 99
-51 96 -56 -4 -5 -1 -6 6 -1 7 4 30 -1 52 -10 l39 -18 0 -154 0 -154 51 -54
c96 -101 189 -145 349 -165 218 -26 420 30 531 147 69 73 69 73 69 233 l0 146
160 73 160 73 0 53 c0 52 -1 53 -37 68 -21 8 -209 85 -417 171 -209 86 -385
156 -390 155 -6 0 -170 -69 -364 -152z"/>
<path d="M487 1386 c-40 -37 -38 -95 5 -131 26 -22 39 -26 67 -21 66 10 93 68
64 134 -20 47 -34 53 -48 20 -13 -29 -36 -29 -51 0 l-11 22 -26 -24z"/>
<path d="M431 1237 c-37 -60 -46 -125 -26 -192 14 -49 28 -70 83 -126 54 -53
88 -76 172 -117 58 -28 116 -53 129 -57 44 -13 -69 84 -139 120 -150 76 -230
171 -230 275 0 36 7 68 20 93 25 46 19 49 -9 4z"/>
<path d="M2320 1217 c5 -16 10 -52 10 -80 0 -101 -82 -197 -230 -272 -70 -36
-183 -133 -139 -120 13 4 71 29 129 57 84 41 118 64 172 117 55 56 69 77 83
126 15 49 16 67 6 110 -7 29 -18 61 -26 71 -14 17 -14 17 -5 -9z"/>
<path d="M1158 723 c7 -3 16 -2 19 1 4 3 -2 6 -13 5 -11 0 -14 -3 -6 -6z"/>
<path d="M1578 723 c7 -3 16 -2 19 1 4 3 -2 6 -13 5 -11 0 -14 -3 -6 -6z"/>
<path d="M1343 713 c20 -2 54 -2 75 0 20 2 3 4 -38 4 -41 0 -58 -2 -37 -4z"/>
</g>
</svg>
