<svg xmlns="http://www.w3.org/2000/svg" xmlns:xlink="http://www.w3.org/1999/xlink" width="364.904" height="243.27" viewBox="0 0 364.904 243.27"><defs><clipPath id="a"><path d="M364.9,0H0V243.27H364.9Z"/></clipPath></defs><g transform="translate(-812.547 -746.73)"><g transform="translate(771 272)"><circle cx="96" cy="96" r="96" transform="translate(141 513)" fill="#c5dcef"/></g><g transform="translate(812.547 746.73)" clip-path="url(#a)"><g transform="translate(242.571 173.644)"><path d="M149.949,381.585A24.688,24.688,0,1,0,174.638,356.9,24.689,24.689,0,0,0,149.949,381.585Z" transform="translate(-149.949 -356.896)" fill="#422c4f"/><path d="M164.156,388.88A17.776,17.776,0,1,0,181.933,371.1,17.776,17.776,0,0,0,164.156,388.88Z" transform="translate(-157.244 -364.191)" fill="#485275"/><path d="M170.859,392.321a14.515,14.515,0,1,0,14.515-14.515A14.515,14.515,0,0,0,170.859,392.321Z" transform="translate(-160.685 -367.633)" fill="#c6d2d6"/><path d="M199.811,377.806a14.447,14.447,0,0,1,7.491,2.08,12.826,12.826,0,1,0,0,24.869,14.516,14.516,0,1,1-7.491-26.949Z" transform="translate(-175.123 -367.632)" fill="#99a2af"/><path d="M187.536,400.884a6.4,6.4,0,1,0,6.4-6.4A6.4,6.4,0,0,0,187.536,400.884Z" transform="translate(-169.248 -376.195)" fill="#99a2af"/><path d="M191.779,403.063a4.337,4.337,0,1,0,4.337-4.337A4.337,4.337,0,0,0,191.779,403.063Z" transform="translate(-171.427 -378.374)" fill="#a24261"/></g><g transform="translate(115.755 173.644)"><path d="M410.6,381.585A24.688,24.688,0,1,0,435.288,356.9,24.689,24.689,0,0,0,410.6,381.585Z" transform="translate(-410.599 -356.896)" fill="#422c4f"/><path d="M424.806,388.88A17.776,17.776,0,1,0,442.583,371.1,17.776,17.776,0,0,0,424.806,388.88Z" transform="translate(-417.894 -364.191)" fill="#485275"/><path d="M431.509,392.321a14.515,14.515,0,1,0,14.515-14.515A14.515,14.515,0,0,0,431.509,392.321Z" transform="translate(-421.335 -367.633)" fill="#c6d2d6"/><path d="M460.46,377.806a14.447,14.447,0,0,1,7.491,2.08,12.826,12.826,0,1,0,0,24.869,14.516,14.516,0,1,1-7.491-26.949Z" transform="translate(-435.771 -367.632)" fill="#99a2af"/><path d="M448.186,400.884a6.4,6.4,0,1,0,6.4-6.4A6.4,6.4,0,0,0,448.186,400.884Z" transform="translate(-429.898 -376.195)" fill="#99a2af"/><path d="M452.429,403.063a4.337,4.337,0,1,0,4.337-4.337A4.337,4.337,0,0,0,452.429,403.063Z" transform="translate(-432.077 -378.374)" fill="#a24261"/></g><path d="M305.486,375.916a16.056,16.056,0,1,0,20.522,9.718,16.064,16.064,0,0,0-20.522-9.718Zm-126.987,0a16.056,16.056,0,1,0,20.522,9.718,16.064,16.064,0,0,0-20.522-9.718Z" transform="translate(-43.704 -192.536)" fill="none" stroke="#fff" stroke-linecap="round" stroke-width="6" stroke-dasharray="64"/><g transform="translate(179.245 40.706)"><path d="M337.946,128.987,339.1,123.7a3.73,3.73,0,0,1,3.8-2.931l5.34.218-.58,2.508a13.627,13.627,0,0,0-.127,5.531l.192,1.043a.7.7,0,0,1-.717.825l-1.079-.044a7.421,7.421,0,0,1-11.813,3.405L327.7,128.9l3.416,2.6a4.318,4.318,0,0,0,6.834-2.515Z" transform="translate(-322.015 -102.716)" fill="#f1c8ac"/><path d="M347.795,116.622l-.419,1.809-5.339-.218a3.731,3.731,0,0,0-3.8,2.931l-1.155,5.284a4.318,4.318,0,0,1-6.834,2.515l-3.416-2.6h0l.43-10.558,20.529.837Z" transform="translate(-321.154 -100.157)" fill="#eba48e"/><path d="M356.728,137.484l6.416,5.357-.985,2.493-5.431-7.851Z" transform="translate(-351.046 -111.298)" fill="#422c4f"/><path d="M358.753,144.32l4.922-6.835,5.43,7.85-1.677,4.249Z" transform="translate(-357.993 -111.299)" fill="#f1c8ac"/><path d="M332.039,126.061c-.125.605.038,1.15.365,1.218s.692-.368.817-.973-.038-1.15-.365-1.218S332.164,125.456,332.039,126.061Zm1.657-2.079a1.573,1.573,0,0,0-1.692.008c-.528.32-.974-.527-.449-.845a2.535,2.535,0,0,1,2.657.031A.479.479,0,0,1,333.7,123.981Z" transform="translate(-309.97 -103.75)" fill="#422c4f"/><path d="M337.037,134.951l-1.085.325a8.19,8.19,0,0,1-4.864-.05l-2.639-.861.678-1.226,2.02.651a8.19,8.19,0,0,0,4.864.05l1.085-.325a19.1,19.1,0,0,1,2.932-.633l.386-.052.293,1.4-.737.083a19.158,19.158,0,0,0-2.932.633Z" transform="translate(-314.85 -108.909)" fill="#fff"/><path d="M331,135.846l2.639.861a8.2,8.2,0,0,0,4.864.05l1.085-.325a19.135,19.135,0,0,1,2.932-.633l.738-.083.1.464a4.116,4.116,0,0,1-.221,2.4l-.667,1.628a7.7,7.7,0,0,1-12.24,2.84l-2.153-1.911,2.926-5.29Z" transform="translate(-317.399 -110.391)" fill="#81d2cf"/><path d="M353.171,134.1l-.307,1.408a4.315,4.315,0,0,1-4.648,3.372l2.993-5.413Z" transform="translate(-336.932 -109.235)" fill="#422c4f"/><path d="M357.117,139.507l1.787,5.846a.273.273,0,0,1-.3.349,4.831,4.831,0,0,1-3.513-2.529l-2.385-4.553,4.416.887Z" transform="translate(-344.86 -111.882)" fill="#454f6b"/><path d="M335.361,102.56l-1.372,6.27a1.756,1.756,0,0,1-2.391,1.245l-10.815-4.514.32-7.859a14.632,14.632,0,0,1,29.25.751l-9.186-.374A5.706,5.706,0,0,0,335.361,102.56Z" transform="translate(-320.768 -83.664)" fill="#df4268"/><path d="M335.574,97.725a1.975,1.975,0,0,0,1.794-.989,8.259,8.259,0,0,1,7.512-4.153,1.975,1.975,0,1,0,.161-3.947,12.2,12.2,0,0,0-11.1,6.13,1.976,1.976,0,0,0,1.629,2.959Zm15.265-2.946a1.975,1.975,0,0,0,1.312-3.519l-.09-.07a1.975,1.975,0,0,0-2.43,3.115l.06.047a1.963,1.963,0,0,0,1.147.428Z" transform="translate(-329.586 -86.212)" fill="#fff"/><path d="M331.614,125.283a1.756,1.756,0,0,0,2.391-1.245l1.372-6.27a5.706,5.706,0,0,1,5.807-4.481l9.185.374c0,.146,0,.293-.007.441l-.055,1.352-8.71-.355a4.388,4.388,0,0,0-4.466,3.447l-1.362,6.221a3.511,3.511,0,0,1-4.97,2.4l-9.031-4.407a1.757,1.757,0,0,1-.984-1.649l.014-.347Z" transform="translate(-320.784 -98.872)" fill="#a24261"/></g><g transform="translate(72.398 71.33)"><path d="M271.987,217.64h6.888a2.322,2.322,0,0,1,2.322,2.322v4.3a2.322,2.322,0,0,1-2.322,2.322H273.3v-1.712a6.335,6.335,0,0,1-4.48-1.856l-.838-.837Zm0,0-4.005,4.542-17.2-4,2.379-6.363Z" transform="translate(-110.707 -180.091)" fill="#eba48e"/><path d="M308.5,211.819l.84.26.272,6.916-3.491-.812Z" transform="translate(-166.046 -180.091)" fill="#dd8b76"/><path d="M319.614,160.021a5.4,5.4,0,0,1,7.418.722l17.842,20.7,3.224,1.087-3,8.013-1.692-.366a13.675,13.675,0,0,1-7.008-3.936l-17.368-18.25A5.4,5.4,0,0,1,319.614,160.021Z" transform="translate(-210.093 -152.904)" fill="#5296f4"/><path d="M307.44,214.32l.1-.255,3-8.013.3-.793a.878.878,0,0,1,1.13-.515l2.949,1.1a.878.878,0,0,1,.515,1.13l-.24.643-2.8,7.494-.345.923a.877.877,0,0,1-1.129.515l-2.949-1.1a.878.878,0,0,1-.515-1.13Z" transform="translate(-172.526 -176.43)" fill="#3985d7"/><path d="M324.221,161.605a5.436,5.436,0,0,0-6.672-1.249c.122-.116.247-.229.382-.334a5.4,5.4,0,0,1,7.418.722l17.843,20.7,3.224,1.087-.481,1.286-3.621-1.221-18.093-20.986Z" transform="translate(-208.41 -152.904)" fill="#5dabff"/><path d="M289.36,249.748l37.188,9.9a10,10,0,0,1,6,14.809L310.876,310.6l-12.07-5.355,17.345-32.983-35.322-7.383a11.578,11.578,0,0,1-8.569-15.129Z" transform="translate(-173.629 -199.566)" fill="#422c4f"/><path d="M326.242,367.431l.906-1.371,6.859,3.043-1.614,2.939-7.646-2.146C325.216,369.059,325.711,368.234,326.242,367.431Z" transform="translate(-199.503 -259.288)" fill="#eba48e"/><path d="M333.439,377.4l.639,1.626-.852-.6a2.007,2.007,0,0,0-1.154-.366h-4.005a39.027,39.027,0,0,1,1.992-4.115l7.645,2.146-.462.84h-3.483A.344.344,0,0,0,333.439,377.4Z" transform="translate(-204.814 -263.337)" fill="#fff"/><path d="M319.275,387.554h-16.2l.295-1.145a39.132,39.132,0,0,1,1.746-5.2h4.005a2.007,2.007,0,0,1,1.155.366l.852.6-.639-1.626a.343.343,0,0,1,.32-.469h3.483l2.574,2.419a6.287,6.287,0,0,0,4.306,1.705h1.754a4.541,4.541,0,0,1,3.988,2.373l-3.341.6A24.538,24.538,0,0,1,319.275,387.554Z" transform="translate(-181.861 -266.488)" fill="#422c4f"/><path d="M318.553,394.412a24.547,24.547,0,0,0,4.3-.379l3.341-.6a4.526,4.526,0,0,1,.553,2.011l-5.1.462q-1.211.11-2.428.11H301.935l.416-1.609Z" transform="translate(-181.139 -273.345)" fill="#fff"/><path d="M326.1,366.059l6.859,3.044-.741,1.349-7.468-2.329,1.35-2.063Z" transform="translate(-198.452 -259.287)" fill="#422c4f"/><path d="M228.6,242.907h1.755l4.518,15.984a50.463,50.463,0,0,1-3.976,37.362l-2.2.83Z" transform="translate(-55.494 -196.053)" fill="#a24261"/><path d="M208.878,258.891l-4.518-15.984h1.646l9.274,34.424a7.1,7.1,0,0,0,6.856,5.254.439.439,0,0,1,.439.439v6.57l-17.673,6.66A50.462,50.462,0,0,0,208.878,258.891Z" transform="translate(-29.498 -196.053)" fill="#df4268"/><path d="M198.885,340.718a29.169,29.169,0,0,0-26.975,21.565l-.55,1.992-.6.294,1.147-4.156a29.169,29.169,0,0,1,26.975-21.565q.493-.015.988-.016a30.573,30.573,0,0,1,15.342,4.093l-.841,1.4a30.583,30.583,0,0,0-14.5-3.627q-.5,0-.988.015Z" transform="translate(-5.791 -245.307)" fill="#fff"/><path d="M197.694,353.863l-25.2,12.386.55-1.992a29.169,29.169,0,0,1,26.976-21.565q.493-.015.988-.015a30.584,30.584,0,0,1,14.5,3.626l-4.527,7.56Z" transform="translate(-6.921 -247.281)" fill="#f1c7c2"/><path d="M289.35,317.185h11.78a19.966,19.966,0,0,0,14.119-5.848,19.97,19.97,0,0,1,14.119-5.849h13.968l-4.42-4.42a27.244,27.244,0,0,0-42.236,4.619l-7.33,11.5Zm9.327-74.279L303.2,258.89a50.469,50.469,0,0,1-4.423,38.192l-2.256,4.07a36.241,36.241,0,0,1-31.7,18.673h-111.2l3.982-14.458a58.66,58.66,0,0,1,25.685-34.3l7.2-4.457h61.864v2.7a4.181,4.181,0,0,1-2.846,3.962A18.149,18.149,0,0,0,255.3,308.62h9.046a25.335,25.335,0,0,0,21.388-11.754l4.194-6.6a32.933,32.933,0,0,0,4.406-24.527l-4.871-22.827Z" transform="translate(-125.571 -196.053)" fill="#df4268"/><path d="M330.355,283.245h66.861v-7.936H343.9a13.759,13.759,0,0,0-9.848,4.149Z" transform="translate(-265.441 -212.69)" fill="#422c4f"/><path d="M242.189,322.335h30.019A37.352,37.352,0,0,0,304.866,303.1l2.256-4.071A51.248,51.248,0,0,0,311.641,260a16.732,16.732,0,0,1,1.528-12.709,1.1,1.1,0,1,0-1.911-1.081,18.947,18.947,0,0,0-1.729,14.387,49.066,49.066,0,0,1-4.326,37.362l-2.256,4.07a35.157,35.157,0,0,1-30.738,18.108H242.189a1.1,1.1,0,0,0,0,2.194Z" transform="translate(-138.403 -197.465)" fill="#f1c7c2"/><path d="M458.9,392.17H390.116l1.053,1.053a8.971,8.971,0,0,0,6.343,2.627h54.141A8.971,8.971,0,0,0,458.9,392.17Z" transform="translate(-356.198 -272.694)" fill="#a24261"/><path d="M421.277,369.124a14.878,14.878,0,1,0,14.878-14.878A14.877,14.877,0,0,0,421.277,369.124Z" transform="translate(-363.495 -253.222)" fill="#99a2af"/><path d="M439.78,384.191a11.442,11.442,0,1,0-11.442-11.442A11.455,11.455,0,0,0,439.78,384.191Zm0-21.668a10.225,10.225,0,1,1-10.225,10.226A10.238,10.238,0,0,1,439.78,362.523Z" transform="translate(-367.12 -256.847)" fill="#485275"/><path d="M435.941,377.083H450.8a.609.609,0,0,0,0-1.217H435.941a.609.609,0,0,0,0,1.217Zm1.28-2.435h12.3a.609.609,0,1,0,0-1.217h-12.3a.609.609,0,0,0,0,1.217Zm1.718-2.434h8.867a.609.609,0,0,0,0-1.217h-8.867a.609.609,0,0,0,0,1.217Zm2.045-2.435h4.777a.609.609,0,1,0,0-1.217h-4.777a.609.609,0,0,0,0,1.217Zm-3.763,9.738h12.3a.609.609,0,1,0,0-1.217h-12.3a.609.609,0,0,0,0,1.217Zm1.718,2.435h8.867a.609.609,0,0,0,0-1.217h-8.867a.609.609,0,0,0,0,1.217Zm2.045,2.435h4.777a.609.609,0,1,0,0-1.217h-4.777a.609.609,0,0,0,0,1.217Z" transform="translate(-370.712 -260.572)" fill="#485275"/><path d="M399.995,311.655a45.221,45.221,0,0,1,23.486-6.578h2.777c14.11,0,26.074,11.541,26.064,25.651a25.52,25.52,0,0,1-6.231,16.723H377.309l2.635-9.381a45.221,45.221,0,0,1,20.051-26.415Z" transform="translate(-343.391 -227.975)" fill="#e26d90"/><path d="M414.559,333.21a33.113,33.113,0,0,1,17.2-4.816h2.033a19.094,19.094,0,0,1,19.086,18.783,18.7,18.7,0,0,1-4.563,12.246H397.946l1.93-6.87A33.115,33.115,0,0,1,414.559,333.21Z" transform="translate(-353.987 -239.948)" fill="#df4268"/><path d="M423.2,371.99h23.154a.659.659,0,0,0,0-1.317H423.2a.659.659,0,0,0,0,1.317Zm.713-2.606h23.154a.658.658,0,0,0,0-1.317H423.917a.658.658,0,1,0,0,1.317Zm.713-2.606h23.154a.658.658,0,1,0,0-1.317H424.63a.658.658,0,1,0,0,1.317Zm.713-2.606H448.5a.658.658,0,1,0,0-1.317H425.343a.658.658,0,1,0,0,1.317Zm.713-2.606H449.21a.659.659,0,0,0,0-1.317H426.056a.659.659,0,1,0,0,1.317Z" transform="translate(-362.947 -256.303)" fill="#485275"/><path d="M402.489,291.621H340.625a7.3,7.3,0,0,0,5.163,2.139h50.974A8.737,8.737,0,0,0,402.489,291.621Z" transform="translate(-275.711 -221.066)" fill="#a24261"/><path d="M227.44,230.439h18.434V218.625h-4a23.512,23.512,0,0,0-9.941,2.205l-2.962,1.382a4.345,4.345,0,0,0-2.366,5.04Z" transform="translate(-63.55 -183.585)" fill="#df4268"/><path d="M222.477,218.625h1.938v11.814h-1.938Z" transform="translate(-40.153 -183.585)" fill="#f1c7c2"/><path d="M221.435,230.438h-.988V218.624h.988Z" transform="translate(-36.185 -183.585)" fill="#fff"/><path d="M514.618,286.956a.658.658,0,0,1,.931-.931l5.513,5.513H519.2Z" transform="translate(-478.844 -218.094)" fill="#c6d2d6"/><path d="M406.282,291.075l8.93,8.931a.658.658,0,0,1-.931.931l-9.861-9.862Zm26.968,2.5h37.105a1.1,1.1,0,1,0,0-2.194H433.249a9.86,9.86,0,0,1-7.016-2.906,12.036,12.036,0,0,0-8.568-3.549h-36.09a1.1,1.1,0,0,0,0,2.194h36.09a9.86,9.86,0,0,1,7.017,2.907A12.038,12.038,0,0,0,433.249,293.58Z" transform="translate(-364.064 -217.63)" fill="#fff"/><path d="M254.045,242.907h-9.217l.212.995h9.286Z" transform="translate(-80.939 -196.053)" fill="#a24261"/><path d="M464.031,234.286H528.91V186.3H464.031Z" transform="translate(-462.173 -166.987)" fill="#efbe6c"/><path d="M460.213,170.208h68.594v7.829H460.213Z" transform="translate(-460.213 -158.725)" fill="#efbe6c"/><path d="M464.031,190.1H528.91v-3.8H464.031Z" transform="translate(-462.173 -166.987)" fill="#eba15d"/><path d="M532.243,203.879l.293,1.238H507.9l-8.825-1.238Zm-.442-1.944.294,1.238h-43.2l-8.825-1.238Zm.442,28.5.293,1.239H507.9l-8.825-1.239Zm-.442-1.944.294,1.238h-43.2l-8.825-1.238Z" transform="translate(-473.602 -175.016)" fill="#cc6063"/><path d="M306.706,249.748l31.014,9.269a10.973,10.973,0,0,1,6.268,16.157L322.742,310.6l-12.07-5.355,17.346-32.983L292.7,264.877a11.578,11.578,0,0,1-8.569-15.129h22.58Z" transform="translate(-190.975 -199.566)" fill="#454f6b"/><path d="M337.5,367.431l.906-1.371,6.859,3.043-1.614,2.939L336.01,369.9C336.479,369.059,336.974,368.234,337.5,367.431Z" transform="translate(-216.246 -259.288)" fill="#f1c8ac"/><path d="M344.7,377.4l.639,1.626-.852-.6a2.007,2.007,0,0,0-1.155-.366h-4.005a39.009,39.009,0,0,1,1.992-4.115l7.645,2.146-.462.84h-3.483A.344.344,0,0,0,344.7,377.4Z" transform="translate(-221.557 -263.337)" fill="#fff"/><path d="M330.538,387.554h-16.2l.295-1.145a39.066,39.066,0,0,1,1.746-5.2h4.005a2.007,2.007,0,0,1,1.155.366l.852.6-.639-1.626a.343.343,0,0,1,.32-.469h3.483l2.574,2.419a6.287,6.287,0,0,0,4.306,1.705h1.754a4.541,4.541,0,0,1,3.988,2.373l-3.341.6A24.538,24.538,0,0,1,330.538,387.554Z" transform="translate(-198.604 -266.488)" fill="#422c4f"/><path d="M329.816,394.412a24.548,24.548,0,0,0,4.3-.379l3.34-.6a4.523,4.523,0,0,1,.553,2.011l-5.1.462q-1.211.11-2.428.11H313.2l.416-1.609Z" transform="translate(-197.882 -273.345)" fill="#fff"/><path d="M337.36,366.059l6.859,3.044-.741,1.349-7.468-2.329,1.35-2.063Z" transform="translate(-215.195 -259.287)" fill="#422c4f"/><path d="M383.94,195.821l-2.691-11.767,3.863-21.165a5.965,5.965,0,0,0-2.984-6.291l-8.882-4.905a3.183,3.183,0,0,0-3.611.37,36.953,36.953,0,0,0-12.757,24.749l-1.672,18.6a3.477,3.477,0,0,0,3.463,3.789h22.58A2.76,2.76,0,0,0,383.94,195.821Z" transform="translate(-265.519 -149.014)" fill="#5dabff"/><path d="M360.093,170.193l-.075.288a12.736,12.736,0,0,0,1.871,10.47l8.906,12.806,1.81-9.918Z" transform="translate(-255.064 -158.718)" fill="#5296f4"/><path d="M355.628,157.281l2.441,1.262-2.441,2.633-.832-1.506Z" transform="translate(-238.186 -152.088)" fill="#5dabff"/><path d="M355.619,159.874l.554,4.5-2.513-2.384Z" transform="translate(-235.736 -153.419)" fill="#5296f4"/><path d="M358.434,148.887l2.588-2.28,9.235,5.047L369,156.995Z" transform="translate(-252.143 -146.607)" fill="#6bc5ff"/><path d="M260.64,228.307h6.888a2.322,2.322,0,0,1,2.322,2.322v4.3a2.322,2.322,0,0,1-2.322,2.322h-5.576v-1.712a6.334,6.334,0,0,1-4.48-1.856l-.838-.837Z" transform="translate(-102.208 -188.557)" fill="#f1c8ac"/><path d="M296.769,222.166l-4.005,4.542-17.2-4,2.379-6.363Z" transform="translate(-138.336 -182.415)" fill="#f1c8ac"/><path d="M314.353,216.345l.84.26.272,6.916-3.49-.812Z" transform="translate(-174.746 -182.415)" fill="#eba48e"/><path d="M325.467,164.547a5.4,5.4,0,0,1,7.418.722l17.842,20.7,3.225,1.087-3,8.013-1.691-.366a13.676,13.676,0,0,1-7.008-3.936l-17.368-18.25a5.4,5.4,0,0,1,.578-7.966Z" transform="translate(-218.794 -155.228)" fill="#5dabff"/><path d="M313.292,218.845l.1-.255,3-8.013.3-.793a.878.878,0,0,1,1.13-.515l2.949,1.1a.878.878,0,0,1,.515,1.13l-.24.642-2.8,7.494-.345.923a.878.878,0,0,1-1.129.515l-2.949-1.1a.878.878,0,0,1-.515-1.13Z" transform="translate(-181.225 -178.753)" fill="#5296f4"/><path d="M330.072,166.131a5.436,5.436,0,0,0-6.672-1.249c.122-.116.248-.229.383-.334a5.4,5.4,0,0,1,7.418.722l17.843,20.7,3.225,1.087-.482,1.286-3.621-1.221Z" transform="translate(-217.109 -155.228)" fill="#6bc5ff"/><path d="M270.4,239.438a1.974,1.974,0,0,0-2.681-.783l-.007,0c.04-.026.074-.057.117-.08l4.417-2.42a1.975,1.975,0,1,1,1.9,3.464l-4.41,2.416a1.969,1.969,0,0,0,.667-2.6Z" transform="translate(-112.92 -192.463)" fill="#422c4f"/><path d="M279,244.922a1.969,1.969,0,0,1-1.067-3.628l.007,0a1.97,1.97,0,0,1,2.015,3.384l-.006,0A1.971,1.971,0,0,1,279,244.922Z" transform="translate(-123.134 -195.098)" fill="#485275"/></g><path d="M313.338,87.117H390c.756-1.928-.881-4.064-2.789-4.87s-4.07-.6-6.134-.424-4.257.278-6.084-.7c-3.533-1.887-4.01-6.622-5.616-10.29a14.981,14.981,0,0,0-27.907,1.19c-.995,2.928-1.2,6.361-3.451,8.478-2.37,2.226-6.109,2.082-9.245,1.222s-6.2-2.3-9.452-2.215S313.117,83.873,313.338,87.117ZM109.916,86.55h65.441a8.994,8.994,0,0,0-3.315-5.827,7.694,7.694,0,0,0-6.049-1.271c-1.618.348-3.111,1.222-4.759,1.383-2.589.252-5.02-1.3-6.873-3.129s-3.388-4-5.5-5.52a11.7,11.7,0,0,0-17.374,4.362c-.64,1.313-1.03,2.738-1.7,4.038a5.5,5.5,0,0,1-3.088,2.937c-2.333.7-4.63-1-6.973-1.658C116.153,80.854,111.739,83.306,109.916,86.55Zm93.656-34.543h70.089a14.964,14.964,0,0,0-8.446-8.147,14.5,14.5,0,0,0-11.5.961c-2.137,1.164-4.064,2.9-6.469,3.264-3.789.567-7.048-2.4-10.253-4.5a25.8,25.8,0,0,0-18.678-3.727C211.917,41.056,207.352,46.71,203.573,52.006Z" transform="translate(-78.766 -20.245)" fill="#faedd1"/><path d="M480.766,218.857h2.642a4.272,4.272,0,0,0,1.246-.146,2.473,2.473,0,0,0,.988-.559,3.027,3.027,0,0,0,.749-1.226,4.636,4.636,0,0,0,.214-1.484,5.207,5.207,0,0,0-.229-1.649,3.016,3.016,0,0,0-.667-1.124,2.271,2.271,0,0,0-1.051-.642,4.814,4.814,0,0,0-1.323-.136h-2.569Zm2.034-5.785a6.6,6.6,0,0,1,1.158.063,1.343,1.343,0,0,1,.652.331,1.614,1.614,0,0,1,.4.671,4.27,4.27,0,0,1,.141,1.241,4.631,4.631,0,0,1-.141,1.275,1.514,1.514,0,0,1-.37.676,1.313,1.313,0,0,1-.569.287,3.852,3.852,0,0,1-.852.068h-1.046v-4.612Zm10.3,5.785v-1.173H489.2v-1.9h3.5v-1.173h-3.5v-1.542h3.756V211.89H487.8v6.967Zm6.135,0v-1.173h-3.5v-5.736h-1.406v6.909Zm2.365,0V211.89h-1.406v6.967Zm4.617,0,2.5-6.967h-1.494l-1.708,5.157-1.761-5.157h-1.523l2.486,6.967Zm8.51,0v-1.173H510.83v-1.9h3.5v-1.173h-3.5v-1.542h3.761V211.89h-5.167v6.967Zm2.6,0v-2.909h.287a2.422,2.422,0,0,1,.706.078,1.074,1.074,0,0,1,.423.292,9.853,9.853,0,0,1,.744,1.022l1.017,1.518h1.679l-.852-1.357a7.835,7.835,0,0,0-.8-1.134,3.427,3.427,0,0,0-.754-.584,2.2,2.2,0,0,0,1.377-.642,1.866,1.866,0,0,0,.462-1.294,2,2,0,0,0-.307-1.1,1.587,1.587,0,0,0-.808-.667,5.024,5.024,0,0,0-1.625-.19h-2.958v6.967h1.406Zm0-5.785h1.1c.569,0,.91,0,1.027.019a.864.864,0,0,1,.53.277.838.838,0,0,1,.185.564.94.94,0,0,1-.141.525.769.769,0,0,1-.394.292,5.267,5.267,0,0,1-1.265.088h-1.041Zm8.85,5.785v-2.924l2.559-4.043h-1.62l-1.606,2.759-1.64-2.759H522.22l2.549,4.033v2.934Zm-42.213,11.677a3.009,3.009,0,0,0,2.029.608,3.918,3.918,0,0,0,1.513-.253,1.993,1.993,0,0,0,.944-.778,2.195,2.195,0,0,0,.054-2.228,1.97,1.97,0,0,0-.769-.71,7.287,7.287,0,0,0-1.518-.5,3.737,3.737,0,0,1-1.294-.462.529.529,0,0,1-.209-.423.5.5,0,0,1,.224-.433,1.58,1.58,0,0,1,.958-.253,1.38,1.38,0,0,1,.89.238,1.2,1.2,0,0,1,.389.769l1.406-.058a2.037,2.037,0,0,0-.7-1.537,2.937,2.937,0,0,0-1.975-.574,3.512,3.512,0,0,0-1.372.243,1.869,1.869,0,0,0-.866.705,1.749,1.749,0,0,0-.3.993,1.811,1.811,0,0,0,.637,1.4,3.826,3.826,0,0,0,1.591.691q.876.219,1.124.307a1.113,1.113,0,0,1,.506.3.618.618,0,0,1,.146.418.853.853,0,0,1-.345.671,1.869,1.869,0,0,1-2.044-.034,1.666,1.666,0,0,1-.5-1.012l-1.367.131A2.668,2.668,0,0,0,483.963,230.534Zm11.3.487v-1.173h-3.892v-1.9h3.5v-1.173h-3.5v-1.542h3.761v-1.182h-5.167v6.967Zm2.6,0v-2.909h.287a2.419,2.419,0,0,1,.706.078,1.072,1.072,0,0,1,.423.292,9.86,9.86,0,0,1,.744,1.022l1.017,1.518h1.679l-.851-1.357a7.822,7.822,0,0,0-.8-1.134,3.426,3.426,0,0,0-.754-.584,2.2,2.2,0,0,0,1.377-.642,1.866,1.866,0,0,0,.462-1.294,2,2,0,0,0-.306-1.1,1.588,1.588,0,0,0-.808-.667,5.027,5.027,0,0,0-1.625-.19h-2.958v6.967h1.406Zm0-5.785h1.1c.569,0,.91,0,1.027.019a.864.864,0,0,1,.53.277.838.838,0,0,1,.185.564.94.94,0,0,1-.141.525.769.769,0,0,1-.394.292A5.269,5.269,0,0,1,498.9,227h-1.041Zm8.894,5.785,2.5-6.967H507.76l-1.7,5.157-1.761-5.157h-1.528l2.491,6.967Zm4.578,0v-6.967H509.93v6.967Zm5.216-1.44a1.4,1.4,0,0,1-.963.355,1.541,1.541,0,0,1-1.236-.559,2.93,2.93,0,0,1-.477-1.883,2.729,2.729,0,0,1,.482-1.8,1.587,1.587,0,0,1,1.26-.555,1.434,1.434,0,0,1,1.465,1.168l1.391-.331a2.717,2.717,0,0,0-.71-1.284,2.908,2.908,0,0,0-2.078-.754,3.077,3.077,0,0,0-2.36.963,3.811,3.811,0,0,0-.9,2.7,3.643,3.643,0,0,0,.9,2.593,3.295,3.295,0,0,0,4.131.394,3.057,3.057,0,0,0,1.041-1.7l-1.362-.428A2.088,2.088,0,0,1,516.552,229.58ZM525,231.02v-1.173h-3.888v-1.9H524.6v-1.173h-3.493v-1.542h3.756v-1.182H519.7v6.967Z" transform="translate(-397.74 -108.797)" fill="#8b5405"/><g transform="translate(122.366 223.548)"><path d="M331.97,459.465h-157.8" transform="translate(-174.174 -459.465)" fill="#2fc4ca"/><path d="M331.97,459.465h-157.8" transform="translate(-174.174 -459.465)" fill="none" stroke="#425d62" stroke-dashoffset="-212.493" stroke-width="3" stroke-dasharray="116"/></g></g></g></svg>