<svg xmlns="http://www.w3.org/2000/svg" xmlns:xlink="http://www.w3.org/1999/xlink" width="146" height="132.575" viewBox="0 0 146 132.575"><defs><filter id="a"><feOffset dx="-5" input="SourceAlpha"/><feGaussianBlur stdDeviation="8" result="b"/><feFlood flood-opacity="0.161" result="c"/><feComposite operator="out" in="SourceGraphic" in2="b"/><feComposite operator="in" in="c"/><feComposite operator="in" in2="SourceGraphic"/></filter><filter id="d"><feOffset dy="3" input="SourceAlpha"/><feGaussianBlur stdDeviation="3" result="e"/><feFlood flood-opacity="0.161" result="f"/><feComposite operator="out" in="SourceGraphic" in2="e"/><feComposite operator="in" in="f"/><feComposite operator="in" in2="SourceGraphic"/></filter><filter id="g" x="0" y="58.282" width="146" height="74.293" filterUnits="userSpaceOnUse"><feOffset dy="3" input="SourceAlpha"/><feGaussianBlur stdDeviation="3" result="h"/><feFlood flood-opacity="0.459"/><feComposite operator="in" in2="h"/></filter><filter id="i" x="0" y="58.282" width="146" height="74.293" filterUnits="userSpaceOnUse"><feOffset dy="3" input="SourceAlpha"/><feGaussianBlur stdDeviation="3" result="j"/><feFlood flood-opacity="0.161" result="k"/><feComposite operator="out" in="SourceGraphic" in2="j"/><feComposite operator="in" in="k"/><feComposite operator="in" in2="SourceGraphic"/></filter><filter id="l"><feOffset dx="47" dy="16" input="SourceAlpha"/><feGaussianBlur stdDeviation="8" result="m"/><feFlood flood-opacity="0.161" result="n"/><feComposite operator="out" in="SourceGraphic" in2="m"/><feComposite operator="in" in="n"/><feComposite operator="in" in2="SourceGraphic"/></filter><radialGradient id="o" cx="0.403" cy="0.404" r="0.274" gradientTransform="translate(-0.031 0.033) rotate(-4.538)" gradientUnits="objectBoundingBox"><stop offset="0" stop-color="#5c5d6e"/><stop offset="1" stop-color="#0d0d11"/></radialGradient><linearGradient id="p" y1="0.323" x2="0.97" y2="0.375" gradientUnits="objectBoundingBox"><stop offset="0" stop-color="#414159"/><stop offset="1" stop-color="#0d0d12"/></linearGradient><filter id="q" x="30.429" y="63.176" width="85.391" height="56.457" filterUnits="userSpaceOnUse"><feOffset dy="3" input="SourceAlpha"/><feGaussianBlur stdDeviation="3" result="r"/><feFlood flood-opacity="0.31"/><feComposite operator="in" in2="r"/><feComposite in="SourceGraphic"/></filter><filter id="s" x="6.956" y="47.161" width="24.186" height="42.456" filterUnits="userSpaceOnUse"><feOffset dy="3" input="SourceAlpha"/><feGaussianBlur stdDeviation="3" result="t"/><feFlood flood-opacity="0.161"/><feComposite operator="in" in2="t"/><feComposite in="SourceGraphic"/></filter><filter id="u" x="7.339" y="4.606" width="105.031" height="104.463" filterUnits="userSpaceOnUse"><feOffset dy="3" input="SourceAlpha"/><feGaussianBlur stdDeviation="3" result="v"/><feFlood flood-opacity="0.188"/><feComposite operator="in" in2="v"/><feComposite in="SourceGraphic"/></filter></defs><g transform="translate(-1789 330.921)"><g transform="translate(1798 -266.639)"><g data-type="innerShadowGroup"><ellipse cx="46.257" cy="17.503" rx="46.257" ry="17.503" transform="translate(17.743 11.193)" fill="#fff"/><g transform="matrix(1, 0, 0, 1, -9, -64.28)" filter="url(#a)"><ellipse cx="46.257" cy="17.503" rx="46.257" ry="17.503" transform="translate(26.74 75.48)" fill="#fff"/></g></g><g data-type="innerShadowGroup"><ellipse cx="46.257" cy="16.252" rx="46.257" ry="16.252" transform="translate(17.743 28.696)" fill="#828282"/><g transform="matrix(1, 0, 0, 1, -9, -64.28)" filter="url(#d)"><ellipse cx="46.257" cy="16.252" rx="46.257" ry="16.252" transform="translate(26.74 92.98)" fill="#fff"/></g></g><g data-type="innerShadowGroup"><g transform="matrix(1, 0, 0, 1, -9, -64.28)" filter="url(#g)"><g transform="translate(9 64.28)" fill="#9f9f9f"><path d="M 64.00006103515625 56.04325866699219 C 28.8481616973877 56.04325866699219 0.2499943673610687 43.52887725830078 0.2499943673610687 28.14662551879883 C 0.2499943673610687 12.76437568664551 28.8481616973877 0.2500088512897491 64.00006103515625 0.2500088512897491 C 99.15196228027344 0.2500088512897491 127.750129699707 12.76437568664551 127.750129699707 28.14662551879883 C 127.750129699707 43.52887725830078 99.15196228027344 56.04325866699219 64.00006103515625 56.04325866699219 Z" stroke="none"/><path d="M 64.00006103515625 0.4999923706054688 C 55.39070892333984 0.4999923706054688 47.03996276855469 1.241340637207031 39.17979431152344 2.703460693359375 C 31.59645843505859 4.11407470703125 24.78897857666016 6.132160186767578 18.94647979736328 8.701641082763672 C 13.12889099121094 11.26015853881836 8.567779541015625 14.23291015625 5.389808654785156 17.53727722167969 C 2.145164489746094 20.9110107421875 0.4999923706054688 24.48050880432129 0.4999923706054688 28.14662551879883 C 0.4999923706054688 31.81274223327637 2.145164489746094 35.38224029541016 5.389808654785156 38.75597381591797 C 8.567779541015625 42.06034088134766 13.12889099121094 45.03307342529297 18.94647979736328 47.59159088134766 C 24.78897857666016 50.16107559204102 31.59645843505859 52.17915725708008 39.17979431152344 53.58977508544922 C 47.03996276855469 55.0518913269043 55.39070892333984 55.79324340820312 64.00006103515625 55.79324340820312 C 72.60940551757812 55.79324340820312 80.96015930175781 55.0518913269043 88.82032775878906 53.58977508544922 C 96.40366363525391 52.17915725708008 103.2111434936523 50.16107559204102 109.0536422729492 47.59159088134766 C 114.8712310791016 45.03307342529297 119.4323425292969 42.06034088134766 122.6103134155273 38.75597381591797 C 125.8549575805664 35.38224029541016 127.500129699707 31.81274223327637 127.500129699707 28.14662551879883 C 127.500129699707 24.48050880432129 125.8549575805664 20.9110107421875 122.6103134155273 17.53727722167969 C 119.4323425292969 14.23291015625 114.8712310791016 11.26015853881836 109.0536422729492 8.701641082763672 C 103.2111434936523 6.132160186767578 96.40366363525391 4.11407470703125 88.82032775878906 2.703460693359375 C 80.96015930175781 1.241340637207031 72.60940551757812 0.4999923706054688 64.00006103515625 0.4999923706054688 M 64.00006103515625 -7.62939453125e-06 C 99.3463134765625 -7.62939453125e-06 128.0001220703125 12.60167694091797 128.0001220703125 28.14662551879883 C 128.0001220703125 43.69157409667969 99.3463134765625 56.29324340820312 64.00006103515625 56.29324340820312 C 28.65380859375 56.29324340820312 0 43.69157409667969 0 28.14662551879883 C 0 12.60167694091797 28.65380859375 -7.62939453125e-06 64.00006103515625 -7.62939453125e-06 Z" stroke="none" fill="#d2d2d2"/></g></g><g transform="translate(0)" fill="#9f9f9f"><path d="M 64.00006103515625 56.04325866699219 C 28.8481616973877 56.04325866699219 0.2499943673610687 43.52887725830078 0.2499943673610687 28.14662551879883 C 0.2499943673610687 12.76437568664551 28.8481616973877 0.2500088512897491 64.00006103515625 0.2500088512897491 C 99.15196228027344 0.2500088512897491 127.750129699707 12.76437568664551 127.750129699707 28.14662551879883 C 127.750129699707 43.52887725830078 99.15196228027344 56.04325866699219 64.00006103515625 56.04325866699219 Z" stroke="none"/><path d="M 64.00006103515625 0.4999923706054688 C 55.39070892333984 0.4999923706054688 47.03996276855469 1.241340637207031 39.17979431152344 2.703460693359375 C 31.59645843505859 4.11407470703125 24.78897857666016 6.132160186767578 18.94647979736328 8.701641082763672 C 13.12889099121094 11.26015853881836 8.567779541015625 14.23291015625 5.389808654785156 17.53727722167969 C 2.145164489746094 20.9110107421875 0.4999923706054688 24.48050880432129 0.4999923706054688 28.14662551879883 C 0.4999923706054688 31.81274223327637 2.145164489746094 35.38224029541016 5.389808654785156 38.75597381591797 C 8.567779541015625 42.06034088134766 13.12889099121094 45.03307342529297 18.94647979736328 47.59159088134766 C 24.78897857666016 50.16107559204102 31.59645843505859 52.17915725708008 39.17979431152344 53.58977508544922 C 47.03996276855469 55.0518913269043 55.39070892333984 55.79324340820312 64.00006103515625 55.79324340820312 C 72.60940551757812 55.79324340820312 80.96015930175781 55.0518913269043 88.82032775878906 53.58977508544922 C 96.40366363525391 52.17915725708008 103.2111434936523 50.16107559204102 109.0536422729492 47.59159088134766 C 114.8712310791016 45.03307342529297 119.4323425292969 42.06034088134766 122.6103134155273 38.75597381591797 C 125.8549575805664 35.38224029541016 127.500129699707 31.81274223327637 127.500129699707 28.14662551879883 C 127.500129699707 24.48050880432129 125.8549575805664 20.9110107421875 122.6103134155273 17.53727722167969 C 119.4323425292969 14.23291015625 114.8712310791016 11.26015853881836 109.0536422729492 8.701641082763672 C 103.2111434936523 6.132160186767578 96.40366363525391 4.11407470703125 88.82032775878906 2.703460693359375 C 80.96015930175781 1.241340637207031 72.60940551757812 0.4999923706054688 64.00006103515625 0.4999923706054688 M 64.00006103515625 -7.62939453125e-06 C 99.3463134765625 -7.62939453125e-06 128.0001220703125 12.60167694091797 128.0001220703125 28.14662551879883 C 128.0001220703125 43.69157409667969 99.3463134765625 56.29324340820312 64.00006103515625 56.29324340820312 C 28.65380859375 56.29324340820312 0 43.69157409667969 0 28.14662551879883 C 0 12.60167694091797 28.65380859375 -7.62939453125e-06 64.00006103515625 -7.62939453125e-06 Z" stroke="none"/></g><g transform="matrix(1, 0, 0, 1, -9, -64.28)" filter="url(#i)"><g transform="translate(9 64.28)" fill="#fff"><path d="M 64.00006103515625 56.04325866699219 C 28.8481616973877 56.04325866699219 0.2499943673610687 43.52887725830078 0.2499943673610687 28.14662551879883 C 0.2499943673610687 12.76437568664551 28.8481616973877 0.2500088512897491 64.00006103515625 0.2500088512897491 C 99.15196228027344 0.2500088512897491 127.750129699707 12.76437568664551 127.750129699707 28.14662551879883 C 127.750129699707 43.52887725830078 99.15196228027344 56.04325866699219 64.00006103515625 56.04325866699219 Z" stroke="none"/><path d="M 64.00006103515625 0.4999923706054688 C 55.39070892333984 0.4999923706054688 47.03996276855469 1.241340637207031 39.17979431152344 2.703460693359375 C 31.59645843505859 4.11407470703125 24.78897857666016 6.132160186767578 18.94647979736328 8.701641082763672 C 13.12889099121094 11.26015853881836 8.567779541015625 14.23291015625 5.389808654785156 17.53727722167969 C 2.145164489746094 20.9110107421875 0.4999923706054688 24.48050880432129 0.4999923706054688 28.14662551879883 C 0.4999923706054688 31.81274223327637 2.145164489746094 35.38224029541016 5.389808654785156 38.75597381591797 C 8.567779541015625 42.06034088134766 13.12889099121094 45.03307342529297 18.94647979736328 47.59159088134766 C 24.78897857666016 50.16107559204102 31.59645843505859 52.17915725708008 39.17979431152344 53.58977508544922 C 47.03996276855469 55.0518913269043 55.39070892333984 55.79324340820312 64.00006103515625 55.79324340820312 C 72.60940551757812 55.79324340820312 80.96015930175781 55.0518913269043 88.82032775878906 53.58977508544922 C 96.40366363525391 52.17915725708008 103.2111434936523 50.16107559204102 109.0536422729492 47.59159088134766 C 114.8712310791016 45.03307342529297 119.4323425292969 42.06034088134766 122.6103134155273 38.75597381591797 C 125.8549575805664 35.38224029541016 127.500129699707 31.81274223327637 127.500129699707 28.14662551879883 C 127.500129699707 24.48050880432129 125.8549575805664 20.9110107421875 122.6103134155273 17.53727722167969 C 119.4323425292969 14.23291015625 114.8712310791016 11.26015853881836 109.0536422729492 8.701641082763672 C 103.2111434936523 6.132160186767578 96.40366363525391 4.11407470703125 88.82032775878906 2.703460693359375 C 80.96015930175781 1.241340637207031 72.60940551757812 0.4999923706054688 64.00006103515625 0.4999923706054688 M 64.00006103515625 -7.62939453125e-06 C 99.3463134765625 -7.62939453125e-06 128.0001220703125 12.60167694091797 128.0001220703125 28.14662551879883 C 128.0001220703125 43.69157409667969 99.3463134765625 56.29324340820312 64.00006103515625 56.29324340820312 C 28.65380859375 56.29324340820312 0 43.69157409667969 0 28.14662551879883 C 0 12.60167694091797 28.65380859375 -7.62939453125e-06 64.00006103515625 -7.62939453125e-06 Z" stroke="none"/></g></g><g transform="translate(0)" fill="none"><path d="M 64.00006103515625 56.04325866699219 C 28.8481616973877 56.04325866699219 0.2499943673610687 43.52887725830078 0.2499943673610687 28.14662551879883 C 0.2499943673610687 12.76437568664551 28.8481616973877 0.2500088512897491 64.00006103515625 0.2500088512897491 C 99.15196228027344 0.2500088512897491 127.750129699707 12.76437568664551 127.750129699707 28.14662551879883 C 127.750129699707 43.52887725830078 99.15196228027344 56.04325866699219 64.00006103515625 56.04325866699219 Z" stroke="none"/><path d="M 64.00006103515625 0.4999923706054688 C 55.39070892333984 0.4999923706054688 47.03996276855469 1.241340637207031 39.17979431152344 2.703460693359375 C 31.59645843505859 4.11407470703125 24.78897857666016 6.132160186767578 18.94647979736328 8.701641082763672 C 13.12889099121094 11.26015853881836 8.567779541015625 14.23291015625 5.389808654785156 17.53727722167969 C 2.145164489746094 20.9110107421875 0.4999923706054688 24.48050880432129 0.4999923706054688 28.14662551879883 C 0.4999923706054688 31.81274223327637 2.145164489746094 35.38224029541016 5.389808654785156 38.75597381591797 C 8.567779541015625 42.06034088134766 13.12889099121094 45.03307342529297 18.94647979736328 47.59159088134766 C 24.78897857666016 50.16107559204102 31.59645843505859 52.17915725708008 39.17979431152344 53.58977508544922 C 47.03996276855469 55.0518913269043 55.39070892333984 55.79324340820312 64.00006103515625 55.79324340820312 C 72.60940551757812 55.79324340820312 80.96015930175781 55.0518913269043 88.82032775878906 53.58977508544922 C 96.40366363525391 52.17915725708008 103.2111434936523 50.16107559204102 109.0536422729492 47.59159088134766 C 114.8712310791016 45.03307342529297 119.4323425292969 42.06034088134766 122.6103134155273 38.75597381591797 C 125.8549575805664 35.38224029541016 127.500129699707 31.81274223327637 127.500129699707 28.14662551879883 C 127.500129699707 24.48050880432129 125.8549575805664 20.9110107421875 122.6103134155273 17.53727722167969 C 119.4323425292969 14.23291015625 114.8712310791016 11.26015853881836 109.0536422729492 8.701641082763672 C 103.2111434936523 6.132160186767578 96.40366363525391 4.11407470703125 88.82032775878906 2.703460693359375 C 80.96015930175781 1.241340637207031 72.60940551757812 0.4999923706054688 64.00006103515625 0.4999923706054688 M 64.00006103515625 -7.62939453125e-06 C 99.3463134765625 -7.62939453125e-06 128.0001220703125 12.60167694091797 128.0001220703125 28.14662551879883 C 128.0001220703125 43.69157409667969 99.3463134765625 56.29324340820312 64.00006103515625 56.29324340820312 C 28.65380859375 56.29324340820312 0 43.69157409667969 0 28.14662551879883 C 0 12.60167694091797 28.65380859375 -7.62939453125e-06 64.00006103515625 -7.62939453125e-06 Z" stroke="none" fill="#d2d2d2"/></g></g><g data-type="innerShadowGroup"><ellipse cx="46.257" cy="17.503" rx="46.257" ry="17.503" transform="translate(17.743 11.193)" fill="#fff"/><g transform="matrix(1, 0, 0, 1, -9, -64.28)" filter="url(#l)"><ellipse cx="46.257" cy="17.503" rx="46.257" ry="17.503" transform="translate(26.74 75.48)" fill="#fff"/></g></g></g><g transform="translate(1800.605 -330.921)"><g transform="translate(0 0)"><circle cx="6.031" cy="6.031" r="6.031" transform="translate(0 74.335)" fill="url(#o)"/><g transform="translate(4.351 0)"><g transform="matrix(1, 0, 0, 1, -15.96, 0)" filter="url(#q)"><path d="M501.7,523.288s-.407,20.236,0,22.165,5.821,8.9,14.165,12.832,19.03,3.439,19.187,3.439,11.375.5,19.815-3.439,13.811-11.311,13.971-12.832,0-22.165,0-22.165" transform="translate(-462.09 -454.11)" fill="url(#p)"/></g><path d="M22.842,22.585,79.423,0,59.394,57.154,0,76.7Z" transform="matrix(0.719, 0.695, -0.695, 0.719, 55.2, 0)" fill="#323345"/><path d="M469.359,501.2l55.5,25.647v-6.4l-55.122-25.89Z" transform="translate(-467.438 -439.233)" fill="#46485d"/><path d="M607.085,500.885v-6.691l-54.914,26.322v6.4Z" transform="translate(-494.752 -439.115)" fill="#1f212e"/><g transform="matrix(1, 0, 0, 1, -15.96, 0)" filter="url(#s)"><path d="M480.2,556.094l.476,1.563-2.626.777v19.979s-.833,1.378-1.722,1.378-1.837-1.378-1.837-1.378l.689-23.079Z" transform="translate(-458.54 -502.17)" fill="#fff"/></g></g></g><g transform="matrix(1, 0, 0, 1, -11.6, 0)" filter="url(#u)"><path d="M0,57.125,40.521,21.434s-.483-1.638,2.006-4.586,3.072-2.752,7.951-7.2S60.036,0,60.036,0,56.389,4.928,52.5,9.14a102.493,102.493,0,0,1-8.03,7.709l.948.8a80.926,80.926,0,0,0,7.9-7.121C57.476,6.263,62.062.746,62.062.746a103.377,103.377,0,0,1-7.1,9.34,89.154,89.154,0,0,1-8.444,8.332l1.115.913a57.383,57.383,0,0,0,6.951-6.342c4.079-4.266,9.189-10.857,9.189-10.857S60.2,7.6,56.493,12.188a54.15,54.15,0,0,1-7.845,7.805l1.073.883a40.67,40.67,0,0,0,6.947-6.628C60.586,9.69,65.261,3.2,65.261,3.2S57.425,16.476,51.613,21.434a8.805,8.805,0,0,1-4.582,2.227l-4.279.06L24.992,40.355,4.338,57.586,0,57.125Z" transform="translate(54.87 10.61) rotate(42)" fill="#fff"/></g></g></g></svg>